<svg width="454" height="354" viewBox="0 0 454 354" fill="none" xmlns="http://www.w3.org/2000/svg">
<path d="M301.953 298.225C309.934 287.919 326.955 283.307 326.955 279.947C326.955 276.621 327.466 272.751 324.135 269.164C324.135 269.164 333.916 262.478 340.099 260.42C340.099 260.42 371.02 206.416 352.468 146.216H338.943C338.943 146.216 331.224 146.216 332.395 137.539C332.395 137.539 332.973 134.26 340.114 133.489C340.114 133.489 334.92 128.861 339.536 126.737C344.17 124.631 355.004 124.811 355.004 124.811C355.004 124.811 351.904 122.687 351.525 120.761C351.146 118.835 355.581 117.482 355.581 117.482C355.581 117.482 340.508 94.1514 335.494 69.8315C330.466 45.5305 340.508 33.5597 366.779 34.7282C366.779 34.7282 365.311 33.0817 370.917 33.2801C370.917 33.2801 363.676 32.0305 365.723 29.7077C367.751 27.3848 373.063 24.2094 373.063 24.2094L363.879 25.9367L363.978 13.7862L372.967 15.135L366.485 5.68202L374.598 4.71178C374.598 4.71178 370.773 0.973947 375.934 0.0845322L375.931 0C376.045 0.0147013 376.163 0.0330778 376.277 0.0477791C376.391 0.0330778 376.509 0.0147013 376.623 0V0.0992335C381.769 1.00336 377.94 4.72648 377.94 4.72648L386.054 5.69672L379.571 15.1497L388.56 13.8009L388.674 25.9514L379.494 24.2056C379.494 24.2056 384.787 27.3848 386.816 29.7039C388.844 32.0268 381.603 33.2764 381.603 33.2764C387.228 33.0779 385.759 34.7245 385.759 34.7245C412.046 33.5704 422.088 45.5258 417.059 69.8278C412.031 94.1298 396.957 117.479 396.957 117.479C396.957 117.479 401.411 118.828 401.014 120.757C400.616 122.683 397.55 124.807 397.55 124.807C397.55 124.807 408.35 124.609 413.002 126.733C417.637 128.858 412.41 133.485 412.41 133.485C419.584 134.26 420.162 137.535 420.162 137.535C421.299 146.212 413.599 146.212 413.599 146.212H400.093C381.54 206.392 412.428 260.417 412.428 260.417C418.627 262.475 428.408 269.16 428.408 269.16C425.076 272.766 425.588 276.617 425.588 279.944C425.588 283.303 442.572 287.912 450.572 298.221C458.552 308.497 448.79 320.563 448.79 320.563C457.529 329.322 452.633 345.276 452.633 345.276C410.515 356.126 379.84 353.906 376.281 353.608C372.736 353.921 342.047 356.126 299.929 345.276C299.929 345.276 295.015 329.322 303.787 320.563C303.765 320.585 294.002 308.497 301.953 298.225ZM146.937 320.207C142.682 321.556 143.473 324.257 143.473 324.257V341.991C156.452 355.475 200.187 353.138 207.078 352.66V352.792C207.078 352.792 257.509 356.861 271.592 342.171V324.437C271.592 324.437 272.383 321.736 268.113 320.387C268.113 320.387 274.099 316.124 272.947 305.535C271.809 294.914 249.958 288 249.958 284.905C249.958 281.811 252.844 276.228 251.688 274.104C250.532 271.965 245.703 267.533 237.59 267.533C237.59 267.533 225.221 241.699 225.221 213.344C225.221 184.988 227.349 167.24 227.349 167.24H244.911C244.911 167.24 253.584 163.19 247.617 156.439C247.617 156.439 246.645 154.892 241.054 154.495C241.054 154.495 245.688 149.868 239.703 148.14C233.717 146.413 228.306 146.214 228.306 146.214C228.306 146.214 225.207 142.543 230.235 142.164C235.263 141.786 228.306 136.387 228.306 136.387C228.306 136.387 238.944 103.787 249.546 90.2834C249.546 90.2834 246.281 83.1385 244.352 84.8843C242.423 86.6117 238.76 87.5857 238.76 87.5857C238.76 87.5857 233.732 85.0828 232.197 85.4614C230.662 85.84 226.789 72.5356 210.938 72.337C210.938 72.337 214.715 69.9334 214.27 64.1374C214.005 60.679 209.867 59.0509 208.005 58.4885L208.001 58.0585C208.001 58.0585 207.67 58.1246 207.176 58.2717C207.129 58.2717 207.077 58.257 207.077 58.257V58.3047C205.196 58.8634 201.059 60.4768 200.812 63.9353C200.367 69.7313 204.143 72.1349 204.143 72.1349C188.311 72.3334 184.435 85.6384 182.904 85.2593C181.354 84.8807 176.322 87.3836 176.322 87.3836C176.322 87.3836 172.659 86.4134 170.73 84.6822C168.783 82.9549 165.518 90.0813 165.518 90.0813C176.156 103.585 186.777 136.184 186.777 136.184C186.777 136.184 179.816 141.583 184.848 141.98C189.876 142.377 186.777 146.031 186.777 146.031C186.777 146.031 181.369 146.229 175.38 147.975C169.394 149.702 174.011 154.329 174.011 154.329C168.419 154.726 167.447 156.274 167.447 156.274C161.462 163.025 170.153 167.075 170.153 167.075H187.733C187.733 167.075 189.861 184.823 189.861 213.178C189.861 241.533 177.493 267.381 177.493 267.381C169.38 267.381 164.547 271.829 163.394 273.92C162.238 276.059 165.124 281.642 165.124 284.736C165.124 287.816 143.288 294.748 142.136 305.366C140.98 315.991 146.936 320.206 146.936 320.206L146.937 320.207ZM0.27911 323.434V339.899C15.467 351.951 59.4483 348.907 59.5142 348.907C59.5805 348.907 103.58 351.969 118.768 339.899V323.434C118.768 323.434 117.73 321.622 115.669 321.622C115.669 321.622 118.768 316.748 119.015 309.306C119.28 301.83 100.728 295.409 100.216 291.539C99.7042 287.687 103.562 284.082 99.9509 280.983C96.3398 277.888 89.1327 278.679 87.0708 274.562C85.009 270.446 74.4556 240.349 80.1284 198.689C80.1284 198.689 91.2123 197.652 94.0318 197.142C96.8699 196.631 99.7042 191.742 96.3582 189.173C93.0122 186.59 87.0746 186.34 87.0746 186.34C87.0746 186.34 90.1741 183.524 89.136 179.919C88.0979 176.314 77.7911 175.803 77.7911 175.803C77.7911 175.803 78.0561 172.723 79.3407 172.462C80.6438 172.197 77.2794 170.139 79.3407 168.856C81.4021 167.574 94.8085 162.946 85.0132 143.401C75.2326 123.856 62.3384 107.901 67.7635 104.049C73.171 100.179 77.5442 91.1894 59.518 93.233C41.4918 91.1749 45.8652 100.183 51.2724 104.049C56.6799 107.901 43.8035 123.856 34.0227 143.401C24.227 162.946 37.6191 167.573 39.6805 168.856C41.7419 170.139 38.3958 172.197 39.6805 172.462C40.9652 172.726 41.2302 175.803 41.2302 175.803C41.2302 175.803 30.9227 176.328 29.8852 179.919C28.8619 183.524 31.9466 186.34 31.9466 186.34C31.9466 186.34 26.0275 186.604 22.6778 189.173C19.3317 191.742 22.1661 196.631 25.0042 197.142C27.8423 197.652 38.9076 198.689 38.9076 198.689C44.5801 240.344 34.0266 270.446 31.9468 274.562C29.8854 278.679 22.6779 277.889 19.0668 280.983C15.4557 284.078 19.3318 287.669 18.8017 291.539C18.2901 295.409 -0.261992 301.83 0.00280777 309.306C0.267843 316.748 3.3489 321.622 3.3489 321.622C1.30222 321.603 0.27911 323.434 0.27911 323.434Z" fill="#23A6BC"/>
</svg>
