<svg width="549" height="398" viewBox="0 0 549 398" fill="none" xmlns="http://www.w3.org/2000/svg">
<path fill-rule="evenodd" clip-rule="evenodd" d="M0 0H549V398H0V0ZM258.915 84.3214C258.998 78.684 254.474 74.0261 248.836 74.0261H233.262C227.638 74.0261 223.122 78.6601 223.204 84.2828C223.378 96.2983 223.378 109.44 223.378 123.708V230.977C223.378 299.102 213.216 313.781 158.641 313.781C104.066 313.781 93.1505 304.144 94.2796 236.019C94.2796 232.219 91.1564 229.161 87.3568 229.241L66.078 229.689C61.8803 229.777 58.5234 233.205 58.5234 237.404C58.5234 330.747 80.7299 346.526 158.641 346.526C240.692 346.526 259.134 319.427 259.134 233.235C259.134 216.975 259.027 201.785 258.927 187.608C258.84 175.206 258.758 163.579 258.758 152.69V123.332C258.758 107.856 258.758 95.1144 258.915 84.3214ZM301.689 328.779C296.051 328.779 291.527 324.121 291.61 318.484C291.767 307.691 291.767 294.949 291.767 279.473V250.115C291.767 239.226 291.685 227.599 291.598 215.197C291.498 201.02 291.391 185.831 291.391 169.57C291.391 83.3787 309.833 56.2793 391.884 56.2793C469.795 56.2793 492.002 73.4435 492.002 166.786C492.002 170.215 489.26 173.015 485.832 173.087L463.168 173.564C459.369 173.644 456.245 170.586 456.245 166.786C457.375 98.661 446.459 89.0244 391.884 89.0244C337.309 89.0244 327.147 103.703 327.147 171.828L327.147 279.097C327.147 293.365 327.147 306.507 327.321 318.522C327.403 324.145 322.887 328.779 317.263 328.779H301.689Z" fill="white"/>
</svg>
