<?xml version="1.0" standalone="no"?>
<!DOCTYPE svg PUBLIC "-//W3C//DTD SVG 20010904//EN"
 "http://www.w3.org/TR/2001/REC-SVG-20010904/DTD/svg10.dtd">
<svg version="1.0" xmlns="http://www.w3.org/2000/svg"
 width="325.000000pt" height="347.000000pt" viewBox="0 0 325.000000 347.000000"
 preserveAspectRatio="xMidYMid meet">

<g transform="translate(0.000000,347.000000) scale(0.100000,-0.100000)"
fill="#000000" stroke="none">
<path d="M543 3461 c-77 -20 -106 -61 -144 -208 -27 -106 -35 -249 -19 -366
l12 -95 -37 -49 c-54 -71 -121 -216 -147 -318 -19 -76 -22 -115 -22 -255 1
-196 20 -319 71 -473 103 -310 322 -517 663 -625 52 -17 111 -33 132 -37 l36
-7 -20 -56 c-17 -45 -22 -89 -26 -210 l-4 -152 -77 0 c-199 1 -334 75 -404
223 -69 145 -173 253 -306 318 -123 61 -202 45 -236 -46 -31 -79 -1 -128 113
-184 89 -45 144 -104 192 -206 79 -164 219 -280 408 -337 43 -13 111 -22 189
-25 l121 -6 4 -133 c3 -125 4 -134 28 -160 51 -54 119 -65 178 -26 46 30 47
37 52 452 6 447 3 433 93 549 34 44 42 62 42 97 0 87 -54 124 -215 148 -138
20 -266 57 -370 109 -67 33 -103 59 -171 127 -74 72 -93 99 -132 180 -69 145
-88 233 -94 440 -4 144 -2 186 12 240 23 88 67 178 118 241 96 118 103 141 72
242 -22 73 -29 184 -16 266 6 41 14 77 16 82 8 12 142 -29 231 -70 44 -21 116
-62 160 -92 95 -64 115 -66 279 -26 239 58 561 58 800 0 167 -41 183 -39 288
31 119 79 342 175 362 155 10 -11 25 -114 25 -178 0 -36 -8 -97 -17 -136 -9
-38 -17 -92 -17 -120 -1 -46 3 -55 52 -115 29 -36 71 -101 92 -145 68 -141 88
-265 71 -440 -15 -149 -44 -264 -91 -360 -75 -154 -175 -252 -335 -330 -105
-51 -194 -77 -358 -105 -65 -11 -126 -24 -137 -30 -38 -20 -60 -61 -60 -111 0
-43 5 -53 50 -105 35 -40 57 -77 72 -123 21 -62 22 -90 27 -441 7 -422 5 -413
82 -444 32 -13 48 -14 79 -6 41 11 86 56 96 94 3 13 4 192 2 397 -4 351 -6
379 -27 448 -12 40 -20 75 -18 77 2 2 42 15 90 29 172 50 289 108 410 204 229
182 349 440 377 809 20 260 -32 471 -162 664 -45 66 -46 69 -35 110 6 24 10
104 11 178 0 203 -48 378 -115 419 -110 67 -353 6 -622 -156 l-59 -35 -106 21
c-280 55 -576 55 -854 0 l-107 -21 -78 45 c-216 127 -455 197 -570 168z"/>
</g>
</svg>
