<?xml version="1.0" standalone="no"?>
<!DOCTYPE svg PUBLIC "-//W3C//DTD SVG 20010904//EN"
 "http://www.w3.org/TR/2001/REC-SVG-20010904/DTD/svg10.dtd">
<svg version="1.0" xmlns="http://www.w3.org/2000/svg"
 width="2698.000000pt" height="2104.000000pt" viewBox="0 0 2698.000000 2104.000000"
 preserveAspectRatio="xMidYMid meet">

<g transform="translate(0.000000,2104.000000) scale(0.100000,-0.100000)"
fill="#000000" stroke="none">
<path d="M1170 21015 c-136 -22 -256 -61 -395 -130 -154 -76 -270 -161 -387
-284 -238 -250 -363 -549 -375 -896 -14 -416 150 -797 465 -1076 173 -154 369
-252 632 -315 72 -18 517 -19 12325 -22 8769 -2 12274 0 12335 8 519 66 954
418 1123 905 60 174 72 248 72 455 0 257 -32 397 -140 615 -68 136 -154 253
-278 372 -205 198 -463 326 -742 368 -89 13 -1503 15 -12325 14 -10184 -1
-12239 -3 -12310 -14z"/>
<path d="M1170 11875 c-136 -22 -256 -61 -395 -130 -154 -76 -270 -161 -387
-284 -238 -250 -363 -549 -375 -896 -14 -416 150 -797 465 -1076 173 -154 369
-252 632 -315 72 -18 517 -19 12325 -22 8769 -2 12274 0 12335 8 519 66 954
418 1123 905 60 174 72 248 72 455 0 257 -32 397 -140 615 -68 136 -154 253
-278 372 -205 198 -463 326 -742 368 -89 13 -1503 15 -12325 14 -10184 -1
-12239 -3 -12310 -14z"/>
<path d="M1170 2735 c-136 -22 -256 -61 -395 -130 -154 -76 -270 -161 -387
-284 -238 -250 -363 -549 -375 -896 -14 -416 150 -797 465 -1076 173 -154 369
-252 632 -315 72 -18 517 -19 12325 -22 8769 -2 12274 0 12335 8 519 66 954
418 1123 905 60 174 72 248 72 455 0 257 -32 397 -140 615 -68 136 -154 253
-278 372 -205 198 -463 326 -742 368 -89 13 -1503 15 -12325 14 -10184 -1
-12239 -3 -12310 -14z"/>
</g>
</svg>
