<svg width="549" height="398" viewBox="0 0 549 398" fill="none" xmlns="http://www.w3.org/2000/svg">
<path d="M258.915 84.3217C258.998 78.6842 254.474 74.0264 248.836 74.0264H233.262C227.638 74.0264 223.122 78.6604 223.204 84.283C223.378 96.2985 223.378 109.44 223.378 123.709V230.977C223.378 299.102 213.216 313.781 158.641 313.781C104.066 313.781 93.1505 304.145 94.2796 236.02C94.2796 232.219 91.1564 229.161 87.3568 229.241L66.078 229.689C61.8803 229.777 58.5234 233.206 58.5234 237.404C58.5234 330.747 80.7299 346.526 158.641 346.526C240.692 346.526 259.134 319.427 259.134 233.236C259.134 202.749 258.758 176.026 258.758 152.69V123.332C258.758 107.856 258.758 95.1147 258.915 84.3217Z" fill="white"/>
<path d="M291.61 318.484C291.528 324.121 296.051 328.779 301.689 328.779H317.264C322.887 328.779 327.403 324.145 327.321 318.522C327.147 306.507 327.147 293.365 327.147 279.097L327.147 171.828C327.147 103.703 337.309 89.0244 391.884 89.0244C446.46 89.0244 457.375 98.661 456.245 166.786C456.245 170.586 459.369 173.644 463.168 173.564L485.832 173.087C489.26 173.015 492.002 170.215 492.002 166.786C492.002 73.4435 469.795 56.2793 391.884 56.2793C309.833 56.2793 291.391 83.3787 291.391 169.57C291.391 200.057 291.767 226.78 291.767 250.115L291.767 279.473C291.767 294.949 291.767 307.691 291.61 318.484Z" fill="white"/>
</svg>
